📦 Usando coordenadas da foto vindas de layout.json
Paleta origem: local
Cor primária: (255, 255, 255) #ffffff
Cor secundária: (16, 34, 55) #102237
Texto sobre primária: (15, 20, 30) #0f141e
Texto sobre secundária: (255, 255, 255) #ffffff
Opacidade primária: 0.85
Opacidade secundária: 0.75
Font style: condensada esportiva
Photo mode: contain_center
Photo box: x=1, y=1, w=1, h=1
Rodando FFmpeg...
FFMPEG STDOUT:

FFMPEG STDERR:
ffmpeg version 8.0-essentials_build-www.gyan.dev Copyright (c) 2000-2025 the FFmpeg developers
  built with gcc 15.2.0 (Rev8, Built by MSYS2 project)
  configuration: --enable-gpl --enable-version3 --enable-static --disable-w32threads --disable-autodetect --enable-fontconfig --enable-iconv --enable-gnutls --enable-libxml2 --enable-gmp --enable-bzlib --enable-lzma --enable-zlib --enable-libsrt --enable-libssh --enable-libzmq --enable-avisynth --enable-sdl2 --enable-libwebp --enable-libx264 --enable-libx265 --enable-libxvid --enable-libaom --enable-libopenjpeg --enable-libvpx --enable-mediafoundation --enable-libass --enable-libfreetype --enable-libfribidi --enable-libharfbuzz --enable-libvidstab --enable-libvmaf --enable-libzimg --enable-amf --enable-cuda-llvm --enable-cuvid --enable-dxva2 --enable-d3d11va --enable-d3d12va --enable-ffnvcodec --enable-libvpl --enable-nvdec --enable-nvenc --enable-vaapi --enable-openal --enable-libgme --enable-libopenmpt --enable-libopencore-amrwb --enable-libmp3lame --enable-libtheora --enable-libvo-amrwbenc --enable-libgsm --enable-libopencore-amrnb --enable-libopus --enable-libspeex --enable-libvorbis --enable-librubberband
  libavutil      60.  8.100 / 60.  8.100
  libavcodec     62. 11.100 / 62. 11.100
  libavformat    62.  3.100 / 62.  3.100
  libavdevice    62.  1.100 / 62.  1.100
  libavfilter    11.  4.100 / 11.  4.100
  libswscale      9.  1.100 /  9.  1.100
  libswresample   6.  1.100 /  6.  1.100
Input #0, png_pipe, from 'C:\Users\USER\Desktop\resultado\IA4tube\Pedidos\20260421_185216\_resultado_temp\background_gerado.png':
  Duration: N/A, bitrate: N/A
  Stream #0:0: Video: png, pal8(pc, gbr/unknown/unknown), 3375x4219 [SAR 11811:11811 DAR 3375:4219], 25 fps, 25 tbr, 25 tbn
Input #1, png_pipe, from 'C:\Users\USER\Desktop\resultado\IA4tube\Pedidos\20260421_185216\mascote.png':
  Duration: N/A, bitrate: N/A
  Stream #1:0: Video: png, pal8(pc, gbr/unknown/unknown), 3375x4219 [SAR 11811:11811 DAR 3375:4219], 25 fps, 25 tbr, 25 tbn
Input #2, png_pipe, from 'C:\Users\USER\Desktop\resultado\IA4tube\Pedidos\20260421_185216\escudo1.png':
  Duration: N/A, bitrate: N/A
  Stream #2:0: Video: png, rgba(pc, gbr/unknown/unknown), 933x1293, 25 fps, 25 tbr, 25 tbn
Input #3, png_pipe, from 'C:\Users\USER\Desktop\resultado\IA4tube\Pedidos\20260421_185216\escudo2.png':
  Duration: N/A, bitrate: N/A
  Stream #3:0: Video: png, rgba(pc, gbr/unknown/unknown), 781x997, 25 fps, 25 tbr, 25 tbn
Input #4, png_pipe, from 'C:\Users\USER\Desktop\resultado\IA4tube\Pedidos\20260421_185216\_resultado_temp\moldura_t.png':
  Duration: N/A, bitrate: N/A
  Stream #4:0: Video: png, rgb24(pc, gbr/unknown/unknown), 941x1672, 25 fps, 25 tbr, 25 tbn
Input #5, png_pipe, from 'C:\Users\USER\Desktop\resultado\IA4tube\Pedidos\20260421_185216\_resultado_temp\text_layer_time_principal.png':
  Duration: N/A, bitrate: N/A
  Stream #5:0: Video: png, rgba(pc, gbr/unknown/unknown), 453x160, 25 fps, 25 tbr, 25 tbn
Input #6, png_pipe, from 'C:\Users\USER\Desktop\resultado\IA4tube\Pedidos\20260421_185216\_resultado_temp\text_layer_gols_time_principal.png':
  Duration: N/A, bitrate: N/A
  Stream #6:0: Video: png, rgba(pc, gbr/unknown/unknown), 291x291, 25 fps, 25 tbr, 25 tbn
Input #7, png_pipe, from 'C:\Users\USER\Desktop\resultado\IA4tube\Pedidos\20260421_185216\_resultado_temp\text_layer_placar_x.png':
  Duration: N/A, bitrate: N/A
  Stream #7:0: Video: png, rgba(pc, gbr/unknown/unknown), 165x253, 25 fps, 25 tbr, 25 tbn
Input #8, png_pipe, from 'C:\Users\USER\Desktop\resultado\IA4tube\Pedidos\20260421_185216\_resultado_temp\text_layer_gols_adversario.png':
  Duration: N/A, bitrate: N/A
  Stream #8:0: Video: png, rgba(pc, gbr/unknown/unknown), 291x291, 25 fps, 25 tbr, 25 tbn
Input #9, png_pipe, from 'C:\Users\USER\Desktop\resultado\IA4tube\Pedidos\20260421_185216\_resultado_temp\text_layer_time_adversario.png':
  Duration: N/A, bitrate: N/A
  Stream #9:0: Video: png, rgba(pc, gbr/unknown/unknown), 453x160, 25 fps, 25 tbr, 25 tbn
Input #10, png_pipe, from 'C:\Users\USER\Desktop\resultado\IA4tube\Pedidos\20260421_185216\_resultado_temp\text_layer_titulo.png':
  Duration: N/A, bitrate: N/A
  Stream #10:0: Video: png, rgba(pc, gbr/unknown/unknown), 1020x156, 25 fps, 25 tbr, 25 tbn
Input #11, png_pipe, from 'C:\Users\USER\Desktop\resultado\IA4tube\Pedidos\20260421_185216\_resultado_temp\text_layer_frase.png':
  Duration: N/A, bitrate: N/A
  Stream #11:0: Video: png, rgba(pc, gbr/unknown/unknown), 861x279, 25 fps, 25 tbr, 25 tbn
Input #12, png_pipe, from 'C:\Users\USER\Desktop\resultado\IA4tube\Pedidos\20260421_185216\_resultado_temp\text_layer_artilheiros.png':
  Duration: N/A, bitrate: N/A
  Stream #12:0: Video: png, rgba(pc, gbr/unknown/unknown), 701x201, 25 fps, 25 tbr, 25 tbn
Stream mapping:
  Stream #0:0 (png) -> scale:default
  Stream #1:0 (png) -> setsar:default
  Stream #2:0 (png) -> scale:default
  Stream #3:0 (png) -> scale:default
  Stream #4:0 (png) -> scale:default
  Stream #5:0 (png) -> format:default
  Stream #6:0 (png) -> format:default
  Stream #7:0 (png) -> format:default
  Stream #8:0 (png) -> format:default
  Stream #9:0 (png) -> format:default
  Stream #10:0 (png) -> format:default
  Stream #11:0 (png) -> format:default
  Stream #12:0 (png) -> format:default
  copy:default -> Stream #0:0 (png)
Press [q] to stop, [?] for help
Output #0, image2, to 'C:\Users\USER\Desktop\resultado\IA4tube\Pedidos\20260421_185216\resultado_final.png':
  Metadata:
    encoder         : Lavf62.3.100
  Stream #0:0: Video: png, rgba(pc, gbr/unknown/unknown, progressive), 1080x1920 [SAR 1:1 DAR 9:16], q=2-31, 200 kb/s, 25 fps, 25 tbn
    Metadata:
      encoder         : Lavc62.11.100 png
[out#0/image2 @ 000001cf694ddac0] video:2451KiB audio:0KiB subtitle:0KiB other streams:0KiB global headers:0KiB muxing overhead: unknown
frame=    1 fps=0.0 q=-0.0 Lsize=N/A time=00:00:00.04 bitrate=N/A speed=0.0889x elapsed=0:00:00.45    

✅ Resultado enviado para o site com sucesso
✅ Final salvo em: C:\Users\USER\Desktop\resultado\IA4tube\Pedidos\20260421_185216\resultado_final.png
✅ Cópia salva em: C:\Users\USER\Desktop\resultado\IA4tube\resultados_prontos\resultado_20260421_185216.png
